<svg viewBox="0 0 17 17" x="0" y="0" fill="none" xmlns="http://www.w3.org/2000/svg"><path id="Vector_8" d="M7.5803,16.577l-5.9998,-6.55c-0.1395,-0.152 -0.2723,-0.315 -0.3951,-0.482h2.8886c0.7504,0 1.4278,-0.528 1.7166,-1.339l0.3487,-0.979l1.6369,4.252c0.1261,0.33 0.4017,0.543 0.7105,0.547c0.3088,0.004 0.591,-0.194 0.7305,-0.516l1.4078,-3.296l0.0564,0.132c0.3155,0.737 0.9596,1.203 1.6635,1.203h3.4697c-0.1228,0.167 -0.2556,0.33 -0.3951,0.482l-5.9998,6.546c-0.249,0.272 -0.5777,0.423 -0.9197,0.423c-0.342,0 -0.6707,-0.151 -0.9197,-0.423zM16.7244,7.682h-4.3828c-0.0996,0 -0.1926,-0.066 -0.2391,-0.171l-0.7703,-1.798c-0.1361,-0.314 -0.4117,-0.516 -0.7138,-0.516c-0.3022,0 -0.5778,0.198 -0.7139,0.516l-1.3746,3.215l-1.6934,-4.422c-0.1295,-0.338 -0.4217,-0.555 -0.7371,-0.548c-0.3154,0.008 -0.601,0.229 -0.7238,0.575l-1.0559,2.962c-0.0398,0.117 -0.1394,0.191 -0.2457,0.191h-3.5428c-0.0863,0 -0.166,0.015 -0.2423,0.042c-0.1893,-0.621 -0.2889,-1.281 -0.2889,-1.953v-0.225c0,-2.714 1.6768,-5.028 3.9645,-5.474c1.514,-0.295 3.0546,0.283 4.1371,1.549l0.3984,0.466l0.3984,-0.466c1.0825,-1.266 2.6231,-1.844 4.1371,-1.549c2.2877,0.446 3.9645,2.76 3.9645,5.474v0.225c0,0.657 -0.093,1.301 -0.2756,1.907z" fill="currentColor" xmlns="http://www.w3.org/2000/svg"/></svg>