<svg viewBox="0 0 20.04 20" x="0" y="0" fill="none" xmlns="http://www.w3.org/2000/svg"><path id="Vector_5" d="M13.01,14.95l-4.97,-3.08v-6.87h2v5.76l4.03,2.49zM20.04,10c0,5.51 -4.49,10 -10,10c-5.51,0 -10,-4.49 -10,-10h1c0,4.96 4.04,9 9,9c4.96,0 9,-4.04 9,-9c0,-4.96 -4.04,-9 -9,-9c-3.19,0 -6.08,1.64 -7.72,4.38c-0.11,0.18 -0.22,0.37 -0.31,0.56c-0.01,0.02 -0.02,0.04 -0.03,0.06h4.06v1h-6.04v-6h1v4.74c0.04,-0.09 0.07,-0.17 0.11,-0.25c0.11,-0.22 0.23,-0.42 0.35,-0.63c1.8,-3 5.09,-4.86 8.58,-4.86c5.51,0 10,4.49 10,10z" fill="currentColor" xmlns="http://www.w3.org/2000/svg"/></svg>