<svg viewBox="0 0 18.0025 17" x="0" y="0" fill="none" xmlns="http://www.w3.org/2000/svg"><path id="Vector_7" d="M15.77,7h-4.23l1.52,-4.94c0.32,-1.03 -0.52,-2.06 -1.68,-2.06c-0.58,0 -1.14,0.24 -1.52,0.65l-5.86,6.35h-4v10h4h1h9.43c1.06,0 1.98,-0.67 2.19,-1.61l1.34,-6c0.27,-1.24 -0.78,-2.39 -2.19,-2.39zM4,16h-3v-8h3zM16.98,9.17l-1.34,6c-0.1,0.48 -0.61,0.83 -1.21,0.83h-9.43v-8.61l5.6,-6.06c0.19,-0.21 0.48,-0.33 0.78,-0.33c0.26,0 0.5,0.11 0.63,0.3c0.07,0.1 0.15,0.26 0.09,0.47l-1.52,4.94l-0.4,1.29h1.35h4.23c0.41,0 0.8,0.17 1.03,0.46c0.13,0.15 0.26,0.4 0.19,0.71z" fill="currentColor" xmlns="http://www.w3.org/2000/svg"/></svg>