<svg viewBox="0 0 56 36" x="0" y="0" fill="none" xmlns="http://www.w3.org/2000/svg"><g id="Group 2" xmlns="http://www.w3.org/2000/svg">
<path id="Rectangle 6" d="M0,0h38c9.941,0 18,8.0589 18,18c0,9.9411 -8.059,18 -18,18h-38z" fill="currentColor"/>
<path id="Vector_2" d="M36.87,26.17l-5.59,-5.59c1.07,-1.23 1.72,-2.83 1.72,-4.58c0,-3.87 -3.13,-7 -7,-7c-3.87,0 -7,3.13 -7,7c0,3.87 3.13,7 7,7c1.75,0 3.35,-0.65 4.58,-1.71l5.59,5.59zM26,22c-3.31,0 -6,-2.69 -6,-6c0,-3.31 2.69,-6 6,-6c3.31,0 6,2.69 6,6c0,3.31 -2.69,6 -6,6z" fill="white"/>
</g></svg>