<svg viewBox="0 0 12.0017 11.3333" x="0" y="0" fill="none" xmlns="http://www.w3.org/2000/svg"><path id="Vector_8" d="M10.513,4.6663h-2.82l1.014,-3.293c0.213,-0.687 -0.347,-1.373 -1.12,-1.373c-0.387,0 -0.76,0.16 -1.014,0.433l-3.906,4.233h-2.667v6.667h2.667h0.666h6.287c0.707,0 1.32,-0.447 1.46,-1.073l0.893,-4c0.18,-0.827 -0.52,-1.594 -1.46,-1.594zM2.667,10.6663h-2v-5.333h2zM11.32,6.1133l-0.893,4c-0.067,0.32 -0.407,0.553 -0.807,0.553h-6.287v-5.74l3.734,-4.04c0.126,-0.14 0.32,-0.22 0.52,-0.22c0.173,0 0.333,0.074 0.42,0.2c0.046,0.067 0.1,0.174 0.06,0.314l-1.014,3.293l-0.266,0.86h0.9h2.82c0.273,0 0.533,0.113 0.686,0.307c0.087,0.1 0.174,0.266 0.127,0.473z" fill="currentColor" xmlns="http://www.w3.org/2000/svg"/></svg>