<svg viewBox="0 0 18.0025 17" x="0" y="0" fill="none" xmlns="http://www.w3.org/2000/svg"><path id="Vector_6" d="M14.0024,0h-1h-9.43c-1.07,0 -1.98,0.67 -2.19,1.61l-1.34,6c-0.27,1.24 0.78,2.39 2.19,2.39h4.23l-1.52,4.94c-0.32,1.03 0.52,2.06 1.68,2.06c0.58,0 1.14,-0.24 1.52,-0.65l5.86,-6.35h4v-10zM7.4024,15.67c-0.19,0.21 -0.48,0.33 -0.78,0.33c-0.26,0 -0.5,-0.11 -0.63,-0.3c-0.07,-0.1 -0.15,-0.26 -0.09,-0.47l1.52,-4.94l0.4,-1.29h-1.36h-4.23c-0.41,0 -0.8,-0.17 -1.03,-0.46c-0.12,-0.15 -0.25,-0.4 -0.18,-0.72l1.34,-6c0.1,-0.47 0.61,-0.82 1.21,-0.82h9.43v8.61zM17.0024,9h-3v-8h3z" fill="currentColor" xmlns="http://www.w3.org/2000/svg"/></svg>