<svg viewBox="0 0 12.0017 11.3333" x="0" y="0" fill="none" xmlns="http://www.w3.org/2000/svg"><path id="Vector_9" d="M9.3355,0.0003h-0.667h-6.287c-0.713,0 -1.32,0.446 -1.46,1.073l-0.893,4c-0.18,0.827 0.52,1.593 1.46,1.593h2.82l-1.013,3.294c-0.214,0.686 0.346,1.373 1.12,1.373c0.386,0 0.76,-0.16 1.013,-0.433l3.907,-4.234h2.666v-6.666zM4.9355,10.4463c-0.127,0.14 -0.32,0.22 -0.52,0.22c-0.174,0 -0.334,-0.073 -0.42,-0.2c-0.047,-0.066 -0.1,-0.173 -0.06,-0.313l1.013,-3.293l0.267,-0.86h-0.907h-2.82c-0.273,0 -0.533,-0.114 -0.687,-0.307c-0.08,-0.1 -0.166,-0.267 -0.12,-0.48l0.894,-4c0.066,-0.313 0.406,-0.547 0.806,-0.547h6.287v5.74zM11.3355,6.0003h-2v-5.334h2z" fill="currentColor" xmlns="http://www.w3.org/2000/svg"/></svg>